<?xml version="1.0" encoding="utf-8"?>
<!-- Generator: Adobe Illustrator 18.0.0, SVG Export Plug-In . SVG Version: 6.00 Build 0)  -->
<svg version="1.1" id="Layer_1" xmlns="http://www.w3.org/2000/svg" xmlns:xlink="http://www.w3.org/1999/xlink" x="0px" y="0px"
	 viewBox="0 0 20 22" enable-background="new 0 0 20 22" xml:space="preserve">
<g>
	<path fill="#FFFFFF" d="M15.5,7.7v13.5L4.1,14.6l0,0C0.8,12.6,1,11.4,1,8.7l11.7,6.7V9.3L15.5,7.7z"/>
	<path opacity="0.6" fill="#FFFFFF" d="M12.7,15.4L1,8.7l11.3-6.5l0,0C15.7,0.2,16.6,1,19,2.4L7.3,9.1l5.3,3.1L12.7,15.4z"/>
	<path opacity="0.25" fill="#FFFFFF" d="M7.3,9.1L19,2.4l0,13.1l0,0c0,3.9-1.2,4.3-3.5,5.7l0-13.5l-5.3,3.1L7.3,9.1z"/>
</g>
</svg>
